# xmcd CD database file
#
# Track frame offsets:
#	150
#	24265
#	48366
#	67842
#
# Disc length: 1160 seconds
#
# Revision: 0
# Processed by: cddbd v1.5PL3 Copyright (c) Steve Scherf et al.
# Submitted via: CDex 1.51
#
DISCID=25048604
DTITLE=Birdland - Birdland
DYEAR=1900
DGENRE=Jazz
TTITLE0=Marching 11
TTITLE1=속초에서
TTITLE2=Buried My Heart
TTITLE3=Buried My Heart (instrumental)
EXTD=
EXTT0=
EXTT1=
EXTT2=
EXTT3=
PLAYORDER=
